# xmcd CD database file
#
# Track frame offsets:
#	150
#	18295
#	33406
#	49305
#	66043
#	83960
#	100866
#	113816
#	127730
#	142163
#	157326
#	174797
#	193027
#	210888
#	227625
#	241054
#
# Disc length: 3462 seconds
#
# Revision: 0
# Processed by: cddbd v1.5.2PL0 Copyright (c) Steve Scherf et al.
# Submitted via: CDex 1.70beta2
#
DISCID=ce0d8410
DTITLE=Jimmy Arconada - Send me an Angel  ( LC 05832 )
DYEAR=1900
DGENRE=Blues
TTITLE0=Flooding People
TTITLE1=Let´s Sailin away
TTITLE2=Power of Love
TTITLE3=Take me to Wonderland
TTITLE4=Elinor
TTITLE5=Come back to me
TTITLE6=One Time in Love
TTITLE7=Freedom
TTITLE8=Yes my Baby know
TTITLE9=Feel the need in me
TTITLE10=Don´t slip away
TTITLE11=Mind Obsession
TTITLE12=You complete
TTITLE13=Many Rivers to Cross
TTITLE14=My Special Prayer
TTITLE15=Stormy Weather
EXTD=
EXTT0=
EXTT1=
EXTT2=
EXTT3=
EXTT4=
EXTT5=
EXTT6=
EXTT7=
EXTT8=
EXTT9=
EXTT10=
EXTT11=
EXTT12=
EXTT13=
EXTT14=
EXTT15=
PLAYORDER=
